<mxfile host="app.diagrams.net" modified="2023-11-09T21:15:25.601Z" agent="Mozilla/5.0 (Windows NT 10.0; Win64; x64; rv:109.0) Gecko/20100101 Firefox/119.0" etag="t8Ibwe7OncfkbgEbZ6si" version="22.1.0" type="device">
  <diagram name="Seite-1" id="FzDvEMh-c74N0R4pTF2I">
    <mxGraphModel dx="1044" dy="643" grid="1" gridSize="10" guides="1" tooltips="1" connect="1" arrows="1" fold="1" page="1" pageScale="1" pageWidth="827" pageHeight="1169" math="0" shadow="0">
      <root>
        <mxCell id="0" />
        <mxCell id="1" parent="0" />
        <mxCell id="vV_Yw52JZioU_cg9gBf2-1" value="&lt;div&gt;Futter &lt;br&gt;lagern&lt;/div&gt;" style="ellipse;whiteSpace=wrap;html=1;fontStyle=1" parent="1" vertex="1">
          <mxGeometry x="170" y="39" width="110" height="70" as="geometry" />
        </mxCell>
        <mxCell id="vV_Yw52JZioU_cg9gBf2-2" value="&lt;div&gt;Futterschüsseln säubern&lt;/div&gt;" style="ellipse;whiteSpace=wrap;html=1;fontStyle=1" parent="1" vertex="1">
          <mxGeometry x="180" y="439" width="110" height="70" as="geometry" />
        </mxCell>
        <mxCell id="vV_Yw52JZioU_cg9gBf2-4" value="Futter&lt;br&gt;bestellen" style="ellipse;whiteSpace=wrap;html=1;fontStyle=1" parent="1" vertex="1">
          <mxGeometry x="200" y="359" width="110" height="70" as="geometry" />
        </mxCell>
        <mxCell id="vV_Yw52JZioU_cg9gBf2-5" value="Futter&lt;br&gt;vorbereiten" style="ellipse;whiteSpace=wrap;html=1;fontStyle=1" parent="1" vertex="1">
          <mxGeometry x="140" y="514.5" width="110" height="70" as="geometry" />
        </mxCell>
        <mxCell id="vV_Yw52JZioU_cg9gBf2-6" value="&lt;div&gt;Fütterung dokumentieren&lt;br&gt;&lt;/div&gt;" style="ellipse;whiteSpace=wrap;html=1;fontStyle=1" parent="1" vertex="1">
          <mxGeometry x="200" y="279" width="110" height="70" as="geometry" />
        </mxCell>
        <mxCell id="vV_Yw52JZioU_cg9gBf2-7" value="&lt;div&gt;Futter&lt;/div&gt;&lt;div&gt;portionieren&lt;br&gt;&lt;/div&gt;" style="ellipse;whiteSpace=wrap;html=1;fontStyle=1" parent="1" vertex="1">
          <mxGeometry x="200" y="199" width="110" height="70" as="geometry" />
        </mxCell>
        <mxCell id="vV_Yw52JZioU_cg9gBf2-8" value="Tiere &lt;br&gt;füttern" style="ellipse;whiteSpace=wrap;html=1;fontStyle=1" parent="1" vertex="1">
          <mxGeometry x="200" y="119" width="110" height="70" as="geometry" />
        </mxCell>
        <mxCell id="vV_Yw52JZioU_cg9gBf2-9" value="Tierpfleger &lt;br&gt;Nagetiere" style="shape=umlActor;verticalLabelPosition=bottom;verticalAlign=top;html=1;outlineConnect=0;" parent="1" vertex="1">
          <mxGeometry x="70" y="235" width="30" height="60" as="geometry" />
        </mxCell>
        <mxCell id="vV_Yw52JZioU_cg9gBf2-11" value="Futterhändler" style="shape=umlActor;verticalLabelPosition=bottom;verticalAlign=top;html=1;outlineConnect=0;" parent="1" vertex="1">
          <mxGeometry x="360" y="364" width="30" height="60" as="geometry" />
        </mxCell>
        <mxCell id="vV_Yw52JZioU_cg9gBf2-15" value="" style="endArrow=none;html=1;rounded=0;" parent="1" target="vV_Yw52JZioU_cg9gBf2-1" edge="1">
          <mxGeometry width="50" height="50" relative="1" as="geometry">
            <mxPoint x="120" y="245" as="sourcePoint" />
            <mxPoint x="500" y="345" as="targetPoint" />
          </mxGeometry>
        </mxCell>
        <mxCell id="vV_Yw52JZioU_cg9gBf2-16" value="" style="endArrow=none;html=1;rounded=0;" parent="1" target="vV_Yw52JZioU_cg9gBf2-7" edge="1">
          <mxGeometry width="50" height="50" relative="1" as="geometry">
            <mxPoint x="120" y="265" as="sourcePoint" />
            <mxPoint x="500" y="195" as="targetPoint" />
          </mxGeometry>
        </mxCell>
        <mxCell id="vV_Yw52JZioU_cg9gBf2-17" value="" style="endArrow=none;html=1;rounded=0;" parent="1" target="vV_Yw52JZioU_cg9gBf2-8" edge="1">
          <mxGeometry width="50" height="50" relative="1" as="geometry">
            <mxPoint x="120" y="255" as="sourcePoint" />
            <mxPoint x="500" y="195" as="targetPoint" />
          </mxGeometry>
        </mxCell>
        <mxCell id="vV_Yw52JZioU_cg9gBf2-18" value="" style="endArrow=none;html=1;rounded=0;" parent="1" target="vV_Yw52JZioU_cg9gBf2-5" edge="1">
          <mxGeometry width="50" height="50" relative="1" as="geometry">
            <mxPoint x="120" y="305" as="sourcePoint" />
            <mxPoint x="500" y="195" as="targetPoint" />
          </mxGeometry>
        </mxCell>
        <mxCell id="vV_Yw52JZioU_cg9gBf2-19" value="" style="endArrow=none;html=1;rounded=0;" parent="1" target="vV_Yw52JZioU_cg9gBf2-2" edge="1">
          <mxGeometry width="50" height="50" relative="1" as="geometry">
            <mxPoint x="120" y="295" as="sourcePoint" />
            <mxPoint x="500" y="195" as="targetPoint" />
          </mxGeometry>
        </mxCell>
        <mxCell id="vV_Yw52JZioU_cg9gBf2-20" value="" style="endArrow=none;html=1;rounded=0;" parent="1" target="vV_Yw52JZioU_cg9gBf2-4" edge="1">
          <mxGeometry width="50" height="50" relative="1" as="geometry">
            <mxPoint x="120" y="285" as="sourcePoint" />
            <mxPoint x="500" y="195" as="targetPoint" />
          </mxGeometry>
        </mxCell>
        <mxCell id="vV_Yw52JZioU_cg9gBf2-21" value="" style="endArrow=none;html=1;rounded=0;" parent="1" target="vV_Yw52JZioU_cg9gBf2-6" edge="1">
          <mxGeometry width="50" height="50" relative="1" as="geometry">
            <mxPoint x="120" y="275" as="sourcePoint" />
            <mxPoint x="500" y="195" as="targetPoint" />
          </mxGeometry>
        </mxCell>
        <mxCell id="InswHhmLzo-Wpc6GJT3N-1" value="" style="endArrow=open;startArrow=none;endFill=0;startFill=0;endSize=8;html=1;verticalAlign=bottom;labelBackgroundColor=none;strokeWidth=1;rounded=0;" edge="1" parent="1" source="vV_Yw52JZioU_cg9gBf2-4" target="vV_Yw52JZioU_cg9gBf2-11">
          <mxGeometry width="160" relative="1" as="geometry">
            <mxPoint x="449" y="533" as="sourcePoint" />
            <mxPoint x="378" y="566" as="targetPoint" />
          </mxGeometry>
        </mxCell>
      </root>
    </mxGraphModel>
  </diagram>
</mxfile>
